<svg width="30" height="30" viewBox="0 0 30 30" fill="none" xmlns="http://www.w3.org/2000/svg">
<circle cx="15" cy="15" r="14" fill="white" stroke="url(#paint0_linear_273_188)" stroke-width="2"/>
<path d="M15.8613 11.0371C15.2819 11.0371 14.7676 11.151 14.3184 11.3789C13.8757 11.6003 13.5013 11.9225 13.1953 12.3457C12.8958 12.7689 12.668 13.2799 12.5117 13.8789C12.3555 14.4779 12.2773 15.1517 12.2773 15.9004C12.2773 16.9095 12.401 17.7721 12.6484 18.4883C12.9023 19.1979 13.293 19.7415 13.8203 20.1191C14.3477 20.4902 15.028 20.6758 15.8613 20.6758C16.4408 20.6758 17.0202 20.6107 17.5996 20.4805C18.1855 20.3503 18.8203 20.1647 19.5039 19.9238V22.4629C18.8724 22.7233 18.2507 22.9089 17.6387 23.0195C17.0267 23.1367 16.3398 23.1953 15.5781 23.1953C14.1068 23.1953 12.8958 22.8926 11.9453 22.2871C11.0013 21.6751 10.3014 20.8223 9.8457 19.7285C9.38997 18.6283 9.16211 17.3457 9.16211 15.8809C9.16211 14.8001 9.30859 13.8105 9.60156 12.9121C9.89453 12.0137 10.3242 11.2357 10.8906 10.5781C11.457 9.92057 12.1569 9.41276 12.9902 9.05469C13.8236 8.69661 14.7806 8.51758 15.8613 8.51758C16.571 8.51758 17.2806 8.60872 17.9902 8.79102C18.7064 8.9668 19.39 9.21094 20.041 9.52344L19.0645 11.9844C18.5306 11.7305 17.9935 11.5091 17.4531 11.3203C16.9128 11.1315 16.3822 11.0371 15.8613 11.0371Z" fill="url(#paint1_linear_273_188)"/>
<defs>
<linearGradient id="paint0_linear_273_188" x1="15" y1="0" x2="15" y2="30" gradientUnits="userSpaceOnUse">
<stop stop-color="#4BA6ED"/>
<stop offset="1" stop-color="#4BA6ED" stop-opacity="0.8"/>
</linearGradient>
<linearGradient id="paint1_linear_273_188" x1="15.5" y1="2" x2="15.5" y2="22" gradientUnits="userSpaceOnUse">
<stop stop-color="#4BA6ED"/>
<stop offset="1" stop-color="#4BA6ED" stop-opacity="0.8"/>
</linearGradient>
</defs>
</svg>
