<svg width="32" height="18" viewBox="0 0 32 18" fill="none" xmlns="http://www.w3.org/2000/svg">
<path d="M30.9327 8.75385C30.8818 8.67179 29.827 6.77436 27.4632 4.87692C25.0994 2.97949 21.5156 1 16 1C10.4844 1 6.72269 3.10256 4.5368 4.87692C2.35092 6.65128 1.11818 8.67179 1.06734 8.75385C1.02298 8.83097 1 8.91497 1 9C1 9.08503 1.02298 9.16903 1.06734 9.24615C1.11818 9.3282 2.17299 11.2256 4.5368 13.1231C6.90061 15.0205 10.4844 17 16 17C21.5156 17 25.2773 14.8974 27.4632 13.1231C29.6491 11.3487 30.8818 9.3282 30.9327 9.24615C30.977 9.16903 31 9.08503 31 9C31 8.91497 30.977 8.83097 30.9327 8.75385ZM16 15.7692C12.0095 15.7692 8.52732 14.6 5.65516 12.2923C4.44406 11.3239 3.42018 10.214 2.6178 9C3.42018 7.78596 4.44406 6.67614 5.65516 5.70769C8.52732 3.4 12.0095 2.23077 16 2.23077C19.9905 2.23077 23.4727 3.4 26.3448 5.70769C27.5559 6.67614 28.5798 7.78596 29.3822 9C28.5688 10.2513 24.5148 15.7692 16 15.7692ZM16 4.28205C14.8438 4.28205 13.7135 4.55875 12.7521 5.07717C11.7908 5.59558 11.0415 6.33243 10.599 7.19452C10.1566 8.05661 10.0408 9.00523 10.2664 9.92043C10.4919 10.8356 11.0487 11.6763 11.8663 12.3361C12.6838 12.9959 13.7255 13.4453 14.8595 13.6273C15.9935 13.8093 17.1689 13.7159 18.2372 13.3588C19.3054 13.0017 20.2184 12.397 20.8608 11.6212C21.5031 10.8453 21.846 9.93312 21.846 9C21.846 7.74872 21.2301 6.54869 20.1337 5.66391C19.0374 4.77912 17.5504 4.28205 16 4.28205ZM16 12.4872C15.1454 12.4872 14.31 12.2827 13.5994 11.8995C12.8888 11.5163 12.335 10.9717 12.008 10.3345C11.6809 9.69729 11.5954 8.99613 11.7621 8.31968C11.9288 7.64324 12.3403 7.02188 12.9446 6.53419C13.5489 6.0465 14.3188 5.71438 15.157 5.57983C15.9952 5.44527 16.864 5.51433 17.6536 5.77827C18.4431 6.0422 19.1179 6.48916 19.5927 7.06263C20.0675 7.63609 20.3209 8.3103 20.3209 9C20.3176 9.92403 19.8613 10.8094 19.0517 11.4628C18.2421 12.1162 17.145 12.4845 16 12.4872Z" fill="black" fill-opacity="0.5" stroke="black" stroke-opacity="0.5"/>
</svg>
