<svg width="34" height="34" viewBox="0 0 34 34" fill="none" xmlns="http://www.w3.org/2000/svg">
<path d="M17 1C8.17743 1 1 8.17586 1 17C1 25.8241 8.17743 33 17 33C25.8226 33 33 25.8241 33 17C33 8.17586 25.8226 1 17 1ZM17 30.0009C9.83307 30.0009 4.00094 24.1677 4.00094 17C4.00094 9.83229 9.83307 3.99913 17 3.99913C24.1669 3.99913 29.9991 9.83229 29.9991 17C29.9991 24.1677 24.1669 30.0009 17 30.0009Z" fill="white" stroke="white" stroke-width="2"/>
<mask id="path-2-outside-1_273_183" maskUnits="userSpaceOnUse" x="11.3213" y="7.57617" width="11" height="19" fill="black">
<rect fill="white" x="11.3213" y="7.57617" width="11" height="19"/>
<path d="M20.2763 8.57986H17.7805C14.6018 8.54806 14.1959 10.5154 14.1959 12.6447V14.1929H12.7927C12.7293 14.1845 12.6647 14.1907 12.6041 14.2112C12.5435 14.2317 12.4885 14.266 12.4432 14.3112C12.398 14.3565 12.3638 14.4115 12.3433 14.4721C12.3227 14.5327 12.3165 14.5973 12.325 14.6607V17.4672C12.3165 17.5307 12.3227 17.5952 12.3433 17.6558C12.3638 17.7164 12.398 17.7715 12.4432 17.8167C12.4885 17.862 12.5435 17.8962 12.6041 17.9167C12.6647 17.9372 12.7293 17.9435 12.7927 17.935H14.1959V24.9513C14.1881 25.0149 14.1949 25.0793 14.2158 25.1398C14.2368 25.2003 14.2712 25.2552 14.3166 25.3004C14.362 25.3455 14.4172 25.3797 14.4778 25.4002C14.5384 25.4208 14.6029 25.4273 14.6664 25.4191H17.5242C17.8002 25.4509 18.0237 25.2273 17.9358 24.9513L17.9377 17.935H20.2763C20.3397 17.9435 20.4043 17.9372 20.4649 17.9167C20.5255 17.8962 20.5805 17.862 20.6258 17.8167C20.671 17.7715 20.7052 17.7164 20.7257 17.6558C20.7462 17.5952 20.7525 17.5307 20.744 17.4672V14.6607C20.7525 14.5973 20.7462 14.5327 20.7257 14.4721C20.7052 14.4115 20.671 14.3565 20.6258 14.3112C20.5805 14.266 20.5255 14.2317 20.4649 14.2112C20.4043 14.1907 20.3397 14.1845 20.2763 14.1929H17.9349L17.9377 12.7897C18.0284 12.1919 18.0284 12.2892 18.5831 12.3219H20.2567C20.3867 12.2929 20.5251 12.3088 20.6224 12.2143C20.7197 12.1198 20.7758 11.9907 20.7431 11.8542V9.04762C20.7517 8.98425 20.7456 8.91973 20.7252 8.85911C20.7048 8.79849 20.6707 8.7434 20.6255 8.69812C20.5804 8.65285 20.5253 8.61863 20.4648 8.59811C20.4042 8.5776 20.3397 8.57136 20.2763 8.57986ZM19.7758 11.334L18.6028 11.2891C17.15 11.2891 17.0284 12.0777 17.0284 12.8851L17.0247 14.6588C17.0246 14.7245 17.0374 14.7896 17.0624 14.8503C17.0875 14.911 17.1243 14.9662 17.1707 15.0127C17.2171 15.0592 17.2722 15.096 17.3328 15.1212C17.3935 15.1464 17.4585 15.1593 17.5242 15.1593H19.8086V16.9667H17.5261C17.3935 16.9667 17.2664 17.0193 17.1725 17.113C17.0787 17.2066 17.0259 17.3337 17.0256 17.4663L17.0247 24.4836H15.1313V17.4672C15.1313 17.1913 14.9433 16.9677 14.6664 16.9677H13.2604V15.1603H14.6664C14.732 15.1604 14.797 15.1475 14.8577 15.1225C14.9184 15.0974 14.9735 15.0607 15.02 15.0143C15.1135 14.9198 15.1304 14.7926 15.1304 14.6598V12.6437C15.1304 10.5463 15.5541 9.54718 17.7796 9.54718H19.7749V11.334H19.7758Z"/>
</mask>
<path d="M20.2763 8.57986H17.7805C14.6018 8.54806 14.1959 10.5154 14.1959 12.6447V14.1929H12.7927C12.7293 14.1845 12.6647 14.1907 12.6041 14.2112C12.5435 14.2317 12.4885 14.266 12.4432 14.3112C12.398 14.3565 12.3638 14.4115 12.3433 14.4721C12.3227 14.5327 12.3165 14.5973 12.325 14.6607V17.4672C12.3165 17.5307 12.3227 17.5952 12.3433 17.6558C12.3638 17.7164 12.398 17.7715 12.4432 17.8167C12.4885 17.862 12.5435 17.8962 12.6041 17.9167C12.6647 17.9372 12.7293 17.9435 12.7927 17.935H14.1959V24.9513C14.1881 25.0149 14.1949 25.0793 14.2158 25.1398C14.2368 25.2003 14.2712 25.2552 14.3166 25.3004C14.362 25.3455 14.4172 25.3797 14.4778 25.4002C14.5384 25.4208 14.6029 25.4273 14.6664 25.4191H17.5242C17.8002 25.4509 18.0237 25.2273 17.9358 24.9513L17.9377 17.935H20.2763C20.3397 17.9435 20.4043 17.9372 20.4649 17.9167C20.5255 17.8962 20.5805 17.862 20.6258 17.8167C20.671 17.7715 20.7052 17.7164 20.7257 17.6558C20.7462 17.5952 20.7525 17.5307 20.744 17.4672V14.6607C20.7525 14.5973 20.7462 14.5327 20.7257 14.4721C20.7052 14.4115 20.671 14.3565 20.6258 14.3112C20.5805 14.266 20.5255 14.2317 20.4649 14.2112C20.4043 14.1907 20.3397 14.1845 20.2763 14.1929H17.9349L17.9377 12.7897C18.0284 12.1919 18.0284 12.2892 18.5831 12.3219H20.2567C20.3867 12.2929 20.5251 12.3088 20.6224 12.2143C20.7197 12.1198 20.7758 11.9907 20.7431 11.8542V9.04762C20.7517 8.98425 20.7456 8.91973 20.7252 8.85911C20.7048 8.79849 20.6707 8.7434 20.6255 8.69812C20.5804 8.65285 20.5253 8.61863 20.4648 8.59811C20.4042 8.5776 20.3397 8.57136 20.2763 8.57986ZM19.7758 11.334L18.6028 11.2891C17.15 11.2891 17.0284 12.0777 17.0284 12.8851L17.0247 14.6588C17.0246 14.7245 17.0374 14.7896 17.0624 14.8503C17.0875 14.911 17.1243 14.9662 17.1707 15.0127C17.2171 15.0592 17.2722 15.096 17.3328 15.1212C17.3935 15.1464 17.4585 15.1593 17.5242 15.1593H19.8086V16.9667H17.5261C17.3935 16.9667 17.2664 17.0193 17.1725 17.113C17.0787 17.2066 17.0259 17.3337 17.0256 17.4663L17.0247 24.4836H15.1313V17.4672C15.1313 17.1913 14.9433 16.9677 14.6664 16.9677H13.2604V15.1603H14.6664C14.732 15.1604 14.797 15.1475 14.8577 15.1225C14.9184 15.0974 14.9735 15.0607 15.02 15.0143C15.1135 14.9198 15.1304 14.7926 15.1304 14.6598V12.6437C15.1304 10.5463 15.5541 9.54718 17.7796 9.54718H19.7749V11.334H19.7758Z" fill="white"/>
<path d="M17.7805 8.57986L17.7705 9.57986H17.7805V8.57986ZM14.1959 14.1929V15.1929H15.1959V14.1929H14.1959ZM12.7927 14.1929L12.6603 15.1841L12.7262 15.1929H12.7927V14.1929ZM12.325 14.6607H13.325V14.5942L13.3162 14.5283L12.325 14.6607ZM12.325 17.4672L13.3162 17.5996L13.325 17.5337V17.4672H12.325ZM12.7927 17.935V16.935H12.7262L12.6603 16.9438L12.7927 17.935ZM14.1959 17.935H15.1959V16.935H14.1959V17.935ZM14.1959 24.9513L15.1884 25.0731L15.1959 25.0124V24.9513H14.1959ZM14.6664 25.4191V24.4191H14.6023L14.5387 24.4273L14.6664 25.4191ZM17.5242 25.4191L17.6387 24.4257L17.5816 24.4191H17.5242V25.4191ZM17.9358 24.9513L16.9358 24.9511L16.9358 25.1067L16.983 25.2549L17.9358 24.9513ZM17.9377 17.935V16.935H16.9379L16.9377 17.9347L17.9377 17.935ZM20.2763 17.935L20.4087 16.9438L20.3428 16.935H20.2763V17.935ZM20.744 17.4672H19.744V17.5337L19.7528 17.5996L20.744 17.4672ZM20.744 14.6607L19.7528 14.5283L19.744 14.5942V14.6607H20.744ZM20.2763 14.1929V15.1929H20.3428L20.4087 15.1841L20.2763 14.1929ZM17.9349 14.1929L16.9349 14.1909L16.9329 15.1929H17.9349V14.1929ZM17.9377 12.7897L16.949 12.6396L16.9378 12.7132L16.9377 12.7877L17.9377 12.7897ZM18.5831 12.3219L18.5242 13.3202L18.5537 13.3219H18.5831V12.3219ZM20.2567 12.3219V13.3219H20.3668L20.4744 13.2979L20.2567 12.3219ZM20.7431 11.8542H19.7431V11.9723L19.7707 12.0873L20.7431 11.8542ZM20.7431 9.04762L19.7523 8.91261L19.7431 8.97981V9.04762H20.7431ZM19.7758 11.334V12.334L19.8141 10.3347L19.7758 11.334ZM18.6028 11.2891L18.641 10.2898L18.6219 10.2891H18.6028V11.2891ZM17.0284 12.8851L18.0284 12.8872V12.8851H17.0284ZM17.0247 14.6588L16.0247 14.6567L16.0247 14.6569L17.0247 14.6588ZM17.5242 15.1593V14.1593H17.5242L17.5242 15.1593ZM19.8086 15.1593H20.8086V14.1593H19.8086V15.1593ZM19.8086 16.9667V17.9667H20.8086V16.9667H19.8086ZM17.5261 16.9667L17.5261 17.9667H17.5261V16.9667ZM17.0256 17.4663L16.0256 17.4644L16.0256 17.4662L17.0256 17.4663ZM17.0247 24.4836V25.4836H18.0245L18.0247 24.4837L17.0247 24.4836ZM15.1313 24.4836H14.1313V25.4836H15.1313V24.4836ZM13.2604 16.9677H12.2604V17.9677H13.2604V16.9677ZM13.2604 15.1603V14.1603H12.2604V15.1603H13.2604ZM14.6664 15.1603L14.6679 14.1603H14.6664V15.1603ZM15.02 15.0143L15.7264 15.7222L15.7306 15.7179L15.02 15.0143ZM19.7749 9.54718H20.7749V8.54718H19.7749V9.54718ZM19.7749 11.334H18.7749V12.334H19.7749V11.334ZM20.2763 7.57986H17.7805V9.57986H20.2763V7.57986ZM17.7905 7.57991C15.9819 7.56182 14.7058 8.12604 13.9622 9.25013C13.2849 10.2739 13.1959 11.5698 13.1959 12.6447H15.1959C15.1959 11.5903 15.3098 10.8379 15.6302 10.3536C15.8842 9.96967 16.4005 9.5661 17.7705 9.57981L17.7905 7.57991ZM13.1959 12.6447V14.1929H15.1959V12.6447H13.1959ZM14.1959 13.1929H12.7927V15.1929H14.1959V13.1929ZM12.9251 13.2017C12.7093 13.1729 12.4898 13.1942 12.2836 13.264L12.9247 15.1585C12.8397 15.1872 12.7492 15.196 12.6603 15.1841L12.9251 13.2017ZM12.2836 13.264C12.0774 13.3338 11.89 13.4502 11.7361 13.6041L13.1503 15.0183C13.0869 15.0817 13.0097 15.1297 12.9247 15.1585L12.2836 13.264ZM11.7361 13.6041C11.5822 13.7581 11.4658 13.9454 11.396 14.1516L13.2905 14.7927C13.2617 14.8776 13.2138 14.9548 13.1503 15.0183L11.7361 13.6041ZM11.396 14.1516C11.3262 14.3578 11.3049 14.5773 11.3338 14.7931L13.3162 14.5283C13.328 14.6172 13.3192 14.7077 13.2905 14.7927L11.396 14.1516ZM11.325 14.6607V17.4672H13.325V14.6607H11.325ZM11.3338 17.3348C11.3049 17.5506 11.3262 17.7701 11.396 17.9763L13.2905 17.3353C13.3192 17.4202 13.328 17.5107 13.3162 17.5996L11.3338 17.3348ZM11.396 17.9763C11.4658 18.1825 11.5822 18.3699 11.7361 18.5238L13.1503 17.1096C13.2138 17.1731 13.2617 17.2503 13.2905 17.3353L11.396 17.9763ZM11.7361 18.5238C11.89 18.6777 12.0774 18.7941 12.2836 18.8639L12.9247 16.9695C13.0097 16.9982 13.0869 17.0462 13.1503 17.1096L11.7361 18.5238ZM12.2836 18.8639C12.4898 18.9337 12.7093 18.955 12.9251 18.9262L12.6603 16.9438C12.7492 16.9319 12.8397 16.9407 12.9247 16.9695L12.2836 18.8639ZM12.7927 18.935H14.1959V16.935H12.7927V18.935ZM13.1959 17.935V24.9513H15.1959V17.935H13.1959ZM13.2033 24.8296C13.177 25.0444 13.2 25.2623 13.2708 25.4669L15.1609 24.8128C15.1898 24.8963 15.1992 24.9854 15.1884 25.0731L13.2033 24.8296ZM13.2708 25.4669C13.3416 25.6714 13.4582 25.857 13.6116 26.0096L15.0217 24.5912C15.0843 24.6535 15.132 24.7293 15.1609 24.8128L13.2708 25.4669ZM13.6116 26.0096C13.7651 26.1622 13.9514 26.2776 14.1564 26.3472L14.7992 24.4533C14.8829 24.4817 14.959 24.5289 15.0217 24.5912L13.6116 26.0096ZM14.1564 26.3472C14.3613 26.4167 14.5795 26.4385 14.7941 26.4109L14.5387 24.4273C14.6264 24.416 14.7155 24.4249 14.7992 24.4533L14.1564 26.3472ZM14.6664 26.4191H17.5242V24.4191H14.6664V26.4191ZM17.4097 26.4125C17.8442 26.4626 18.2926 26.3148 18.6029 25.9772C18.928 25.6232 19.0401 25.1233 18.8886 24.6477L16.983 25.2549C16.9194 25.0553 16.9637 24.8052 17.1301 24.6241C17.2815 24.4592 17.4802 24.4074 17.6387 24.4257L17.4097 26.4125ZM18.9358 24.9516L18.9377 17.9353L16.9377 17.9347L16.9358 24.9511L18.9358 24.9516ZM17.9377 18.935H20.2763V16.935H17.9377V18.935ZM20.1439 18.9262C20.3597 18.955 20.5792 18.9337 20.7854 18.8639L20.1443 16.9695C20.2293 16.9407 20.3198 16.9319 20.4087 16.9438L20.1439 18.9262ZM20.7854 18.8639C20.9916 18.7941 21.179 18.6778 21.3329 18.5238L19.9186 17.1096C19.9821 17.0462 20.0593 16.9982 20.1443 16.9695L20.7854 18.8639ZM21.3329 18.5238C21.4868 18.3699 21.6032 18.1825 21.673 17.9763L19.7785 17.3353C19.8072 17.2503 19.8552 17.1731 19.9186 17.1096L21.3329 18.5238ZM21.673 17.9763C21.7427 17.7701 21.7641 17.5506 21.7352 17.3348L19.7528 17.5996C19.741 17.5107 19.7497 17.4202 19.7785 17.3353L21.673 17.9763ZM21.744 17.4672V14.6607H19.744V17.4672H21.744ZM21.7352 14.7931C21.7641 14.5773 21.7427 14.3578 21.673 14.1516L19.7785 14.7927C19.7497 14.7077 19.741 14.6172 19.7528 14.5283L21.7352 14.7931ZM21.673 14.1516C21.6032 13.9454 21.4868 13.7581 21.3329 13.6041L19.9186 15.0183C19.8552 14.9548 19.8072 14.8776 19.7785 14.7927L21.673 14.1516ZM21.3329 13.6041C21.179 13.4502 20.9916 13.3338 20.7854 13.264L20.1443 15.1585C20.0593 15.1297 19.9821 15.0817 19.9186 15.0183L21.3329 13.6041ZM20.7854 13.264C20.5792 13.1942 20.3597 13.1729 20.1439 13.2017L20.4087 15.1841C20.3198 15.196 20.2293 15.1872 20.1443 15.1585L20.7854 13.264ZM20.2763 13.1929H17.9349V15.1929H20.2763V13.1929ZM18.9349 14.1949L18.9377 12.7917L16.9377 12.7877L16.9349 14.1909L18.9349 14.1949ZM18.9264 12.9397C18.9378 12.8643 18.9459 12.8127 18.953 12.773C18.9605 12.7315 18.963 12.7252 18.9598 12.7364C18.9573 12.7451 18.9384 12.8117 18.8858 12.8966C18.8253 12.9944 18.7276 13.1043 18.5842 13.1866C18.4498 13.2638 18.3298 13.285 18.2702 13.2917C18.2163 13.2977 18.1848 13.2944 18.2059 13.2956C18.2257 13.2967 18.2513 13.2989 18.3133 13.3043C18.3686 13.3091 18.4405 13.3152 18.5242 13.3202L18.6421 11.3236C18.587 11.3204 18.5376 11.3163 18.4864 11.3118C18.4419 11.308 18.3758 11.3019 18.3161 11.2986C18.2465 11.2948 17.9129 11.2659 17.5886 11.452C17.204 11.6728 17.0811 12.0329 17.0378 12.1831C16.9945 12.3337 16.9683 12.5125 16.949 12.6396L18.9264 12.9397ZM18.5831 13.3219H20.2567V11.3219H18.5831V13.3219ZM20.4744 13.2979C20.4559 13.3021 20.4473 13.3024 20.478 13.2986C20.4943 13.2965 20.5638 13.2887 20.6307 13.2765C20.7789 13.2496 21.0649 13.1786 21.3191 12.9317L19.9257 11.497C20.0003 11.4246 20.0804 11.3769 20.1499 11.3472C20.214 11.3198 20.2625 11.3107 20.2729 11.3088C20.2789 11.3077 20.2801 11.3077 20.2724 11.3087C20.2618 11.3101 20.2554 11.3108 20.232 11.3137C20.1971 11.3181 20.1225 11.3273 20.039 11.3459L20.4744 13.2979ZM21.3191 12.9317C21.5948 12.6639 21.8523 12.1915 21.7156 11.621L19.7707 12.0873C19.6994 11.79 19.8446 11.5758 19.9257 11.497L21.3191 12.9317ZM21.7431 11.8542V9.04762H19.7431V11.8542H21.7431ZM21.7339 9.18263C21.7634 8.96668 21.7425 8.74686 21.673 8.54031L19.7774 9.17791C19.7487 9.09261 19.7401 9.00182 19.7523 8.91261L21.7339 9.18263ZM21.673 8.54031C21.6036 8.33375 21.4873 8.14602 21.3334 7.99175L19.9177 9.4045C19.8541 9.34077 19.8061 9.26323 19.7774 9.17791L21.673 8.54031ZM21.3334 7.99175C21.1794 7.83748 20.9919 7.72085 20.7855 7.65094L20.144 9.54528C20.0588 9.5164 19.9813 9.46822 19.9177 9.4045L21.3334 7.99175ZM20.7855 7.65094C20.5791 7.58104 20.3593 7.55976 20.1433 7.58875L20.4093 9.57097C20.3201 9.58295 20.2293 9.57416 20.144 9.54528L20.7855 7.65094ZM19.8141 10.3347L18.641 10.2898L18.5645 12.2884L19.7376 12.3333L19.8141 10.3347ZM18.6028 10.2891C17.7076 10.2891 16.9302 10.5379 16.4559 11.2048C16.0402 11.7893 16.0284 12.4905 16.0284 12.8851H18.0284C18.0284 12.7005 18.0362 12.5716 18.054 12.4741C18.071 12.3807 18.0901 12.3578 18.0857 12.3639C18.0739 12.3806 18.0673 12.3727 18.1163 12.353C18.1791 12.3278 18.3238 12.2891 18.6028 12.2891V10.2891ZM16.0284 12.883L16.0247 14.6567L18.0247 14.6609L18.0284 12.8872L16.0284 12.883ZM16.0247 14.6569C16.0243 14.8541 16.0628 15.0494 16.138 15.2316L17.9869 14.4689C18.0119 14.5297 18.0248 14.5949 18.0247 14.6607L16.0247 14.6569ZM16.138 15.2316C16.2132 15.4139 16.3236 15.5795 16.4629 15.7191L17.8784 14.3062C17.9249 14.3528 17.9618 14.4081 17.9869 14.4689L16.138 15.2316ZM16.4629 15.7191C16.6021 15.8586 16.7676 15.9694 16.9497 16.0449L17.716 14.1975C17.7767 14.2227 17.832 14.2597 17.8784 14.3062L16.4629 15.7191ZM16.9497 16.0449C17.1318 16.1204 17.327 16.1593 17.5242 16.1593L17.5242 14.1593C17.59 14.1593 17.6552 14.1723 17.716 14.1975L16.9497 16.0449ZM17.5242 16.1593H19.8086V14.1593H17.5242V16.1593ZM18.8086 15.1593V16.9667H20.8086V15.1593H18.8086ZM19.8086 15.9667H17.5261V17.9667H19.8086V15.9667ZM17.5261 15.9667C17.1286 15.9667 16.7474 16.1244 16.4661 16.4052L17.879 17.8207C17.7853 17.9142 17.6584 17.9667 17.5261 17.9667L17.5261 15.9667ZM16.4661 16.4052C16.1847 16.686 16.0264 17.067 16.0256 17.4644L18.0256 17.4682C18.0254 17.6005 17.9726 17.7273 17.879 17.8207L16.4661 16.4052ZM16.0256 17.4662L16.0247 24.4834L18.0247 24.4837L18.0256 17.4664L16.0256 17.4662ZM17.0247 23.4836H15.1313V25.4836H17.0247V23.4836ZM16.1313 24.4836V17.4672H14.1313V24.4836H16.1313ZM16.1313 17.4672C16.1313 16.7375 15.5892 15.9677 14.6664 15.9677V17.9677C14.519 17.9677 14.3665 17.9015 14.2605 17.7841C14.1619 17.6749 14.1313 17.5547 14.1313 17.4672H16.1313ZM14.6664 15.9677H13.2604V17.9677H14.6664V15.9677ZM14.2604 16.9677V15.1603H12.2604V16.9677H14.2604ZM13.2604 16.1603H14.6664V14.1603H13.2604V16.1603ZM14.6649 16.1603C14.8619 16.1606 15.0571 16.122 15.2392 16.0468L14.4762 14.1981C14.537 14.173 14.6021 14.1602 14.6679 14.1603L14.6649 16.1603ZM15.2392 16.0468C15.4214 15.9717 15.5869 15.8613 15.7264 15.7222L14.3136 14.3065C14.3602 14.26 14.4154 14.2232 14.4762 14.1981L15.2392 16.0468ZM15.7306 15.7179C16.1216 15.323 16.1304 14.8358 16.1304 14.6598H14.1304C14.1304 14.6927 14.127 14.6582 14.1434 14.5961C14.1633 14.5209 14.2105 14.4106 14.3094 14.3108L15.7306 15.7179ZM16.1304 14.6598V12.6437H14.1304V14.6598H16.1304ZM16.1304 12.6437C16.1304 11.5889 16.2553 11.129 16.4203 10.9091C16.5218 10.7738 16.7829 10.5472 17.7796 10.5472V8.54718C16.5508 8.54718 15.4873 8.82013 14.8206 9.70877C14.2173 10.5128 14.1304 11.6011 14.1304 12.6437H16.1304ZM17.7796 10.5472H19.7749V8.54718H17.7796V10.5472ZM18.7749 9.54718V11.334H20.7749V9.54718H18.7749ZM19.7749 12.334H19.7758V10.334H19.7749V12.334Z" fill="white" mask="url(#path-2-outside-1_273_183)"/>
</svg>
