<svg width="50" height="50" viewBox="0 0 50 50" fill="none" xmlns="http://www.w3.org/2000/svg">
<circle cx="25" cy="25" r="25" fill="white"/>
<path d="M10 15.25C10 14.388 10.3161 13.5614 10.8787 12.9519C11.4413 12.3424 12.2044 12 13 12H37C37.7956 12 38.5587 12.3424 39.1213 12.9519C39.6839 13.5614 40 14.388 40 15.25V34.75C40 35.612 39.6839 36.4386 39.1213 37.0481C38.5587 37.6576 37.7956 38 37 38H13C12.2044 38 11.4413 37.6576 10.8787 37.0481C10.3161 36.4386 10 35.612 10 34.75V15.25ZM15.2785 15.25L25 24.4654L34.7215 15.25H15.2785ZM37 17.4096L25.9885 27.8486C25.715 28.1083 25.3637 28.2514 25 28.2514C24.6363 28.2514 24.285 28.1083 24.0115 27.8486L13 17.4096V34.75H37V17.4096Z" fill="url(#paint0_linear_273_179)"/>
<defs>
<linearGradient id="paint0_linear_273_179" x1="25" y1="12" x2="25" y2="38" gradientUnits="userSpaceOnUse">
<stop stop-color="#4BA6ED"/>
<stop offset="1" stop-color="#4BA6ED" stop-opacity="0.8"/>
</linearGradient>
</defs>
</svg>
