<svg width="50" height="50" viewBox="0 0 50 50" fill="none" xmlns="http://www.w3.org/2000/svg">
<circle cx="25" cy="25" r="25" fill="white"/>
<path d="M37.0607 30.458L32.8188 29.9736C32.3201 29.9151 31.8145 29.9703 31.3401 30.1352C30.8657 30.3 30.4349 30.5703 30.08 30.9256L27.0071 33.9984C22.2662 31.5873 18.4127 27.7338 16.0016 22.9929L19.0911 19.9033C19.8093 19.1852 20.16 18.1832 20.0431 17.1645L19.5587 12.956C19.4641 12.1413 19.0731 11.3899 18.4603 10.8448C17.8474 10.2997 17.0555 9.99903 16.2354 10H13.3462C11.4591 10 9.88923 11.5698 10.0061 13.457C10.8913 27.7191 22.2976 39.1087 36.543 39.9939C38.4302 40.1108 40 38.5409 40 36.6538V33.7646C40.0167 32.0779 38.7475 30.6584 37.0607 30.458Z" fill="url(#paint0_linear_273_176)"/>
<defs>
<linearGradient id="paint0_linear_273_176" x1="25.0001" y1="10" x2="25.0001" y2="40" gradientUnits="userSpaceOnUse">
<stop stop-color="#4BA6ED"/>
<stop offset="1" stop-color="#4BA6ED" stop-opacity="0.8"/>
</linearGradient>
</defs>
</svg>
