<svg width="30" height="30" viewBox="0 0 30 30" fill="none" xmlns="http://www.w3.org/2000/svg">
<path d="M0 25.3783C1.52289 26.3198 12.5455 33.4209 20.3842 27.9477C28.2221 22.4745 27.7895 13.0449 27.7895 8.72318C28.5 7.06084 30 6.21555 30 1.71559C28.5268 3.23675 27.0624 3.75381 25.6066 3.26852C24.1808 0.838536 22.2189 -0.237045 19.7203 0.0435411C15.9734 0.46442 14.6029 4.57262 15.0063 9.88876C9.22895 13.1534 4.69895 7.52142 2.36368 3.26852C1.58368 6.6179 0.832105 10.6396 2.36368 15.0875C3.38526 18.054 5.84132 20.5607 9.73026 22.6104C5.78842 24.9972 2.54526 25.921 0 25.3783Z" fill="white"/>
</svg>
